<svg xmlns="http://www.w3.org/2000/svg" xmlns:xlink="http://www.w3.org/1999/xlink" viewBox="91.7800064086914 18.5 200.98605346679688 135.62513732910156" width="296.38466352899405" height="200"><path d="M 115.000,95.500 C 119.091,96.409 118.000,95.000 121.000,94.500" stroke-width="5.118" stroke="black" fill="none" stroke-linecap="round"></path><path d="M 121.000,94.500 C 123.574,90.187 124.091,91.409 125.000,85.500" stroke-width="3.919" stroke="black" fill="none" stroke-linecap="round"></path><path d="M 125.000,85.500 C 127.214,78.576 127.074,78.687 128.000,71.500" stroke-width="3.202" stroke="black" fill="none" stroke-linecap="round"></path><path d="M 128.000,71.500 C 128.946,64.806 128.714,65.076 128.000,58.500" stroke-width="3.192" stroke="black" fill="none" stroke-linecap="round"></path><path d="M 128.000,58.500 C 127.265,54.332 127.446,54.806 125.000,51.500" stroke-width="3.647" stroke="black" fill="none" stroke-linecap="round"></path><path d="M 125.000,51.500 C 121.714,47.300 123.265,49.332 120.000,48.500" stroke-width="4.373" stroke="black" fill="none" stroke-linecap="round"></path><path d="M 120.000,48.500 C 116.658,53.251 116.714,50.800 115.000,58.500" stroke-width="4.251" stroke="black" fill="none" stroke-linecap="round"></path><path d="M 115.000,58.500 C 114.429,62.993 113.658,62.751 114.000,67.500" stroke-width="3.827" stroke="black" fill="none" stroke-linecap="round"></path><path d="M 114.000,67.500 C 113.215,73.488 113.429,73.493 113.000,79.500" stroke-width="3.437" stroke="black" fill="none" stroke-linecap="round"></path><path d="M 113.000,79.500 C 113.235,87.507 112.715,87.488 113.000,95.500" stroke-width="2.975" stroke="black" fill="none" stroke-linecap="round"></path><path d="M 113.000,95.500 C 113.383,104.649 112.735,104.507 112.000,113.500" stroke-width="2.799" stroke="black" fill="none" stroke-linecap="round"></path><path d="M 112.000,113.500 C 110.545,120.712 110.883,120.649 108.000,127.500" stroke-width="2.957" stroke="black" fill="none" stroke-linecap="round"></path><path d="M 108.000,127.500 C 105.944,132.790 106.045,132.712 103.000,137.500" stroke-width="3.196" stroke="black" fill="none" stroke-linecap="round"></path><path d="M 103.000,137.500 C 99.815,143.197 100.944,140.790 98.000,143.500" stroke-width="3.630" stroke="black" fill="none" stroke-linecap="round"></path><path d="M 98.000,143.500 C 96.298,140.781 96.815,143.697 97.000,138.500" stroke-width="4.419" stroke="black" fill="none" stroke-linecap="round"></path><path d="M 97.000,138.500 C 99.179,134.262 98.298,134.281 102.000,130.500" stroke-width="3.826" stroke="black" fill="none" stroke-linecap="round"></path><path d="M 102.000,130.500 C 105.043,125.991 105.179,126.262 109.000,122.500" stroke-width="3.502" stroke="black" fill="none" stroke-linecap="round"></path><path d="M 109.000,122.500 C 113.963,118.946 113.543,118.491 119.000,115.500" stroke-width="3.339" stroke="black" fill="none" stroke-linecap="round"></path><path d="M 119.000,115.500 C 123.267,112.024 123.463,112.446 128.000,109.500" stroke-width="3.408" stroke="black" fill="none" stroke-linecap="round"></path><path d="M 128.000,109.500 C 134.195,106.525 130.767,108.024 134.000,107.500" stroke-width="3.822" stroke="black" fill="none" stroke-linecap="round"></path><path d="M 134.000,107.500 C 130.234,110.769 133.695,109.025 127.000,114.500" stroke-width="4.394" stroke="black" fill="none" stroke-linecap="round"></path><path d="M 127.000,114.500 C 123.639,118.277 123.734,118.269 121.000,122.500" stroke-width="3.760" stroke="black" fill="none" stroke-linecap="round"></path><path d="M 121.000,122.500 C 117.000,126.712 118.639,126.277 117.000,130.500" stroke-width="3.708" stroke="black" fill="none" stroke-linecap="round"></path><path d="M 117.000,130.500 C 118.488,135.043 117.000,133.212 121.000,135.500" stroke-width="4.357" stroke="black" fill="none" stroke-linecap="round"></path><path d="M 121.000,135.500 C 124.758,134.445 123.988,136.043 128.000,132.500" stroke-width="4.015" stroke="black" fill="none" stroke-linecap="round"></path><path d="M 128.000,132.500 C 132.500,130.000 132.258,129.945 136.000,126.500" stroke-width="3.611" stroke="black" fill="none" stroke-linecap="round"></path><path d="M 136.000,126.500 C 139.307,122.690 139.500,123.000 142.000,118.500" stroke-width="3.562" stroke="black" fill="none" stroke-linecap="round"></path><path d="M 142.000,118.500 C 146.243,113.121 143.807,115.690 145.000,112.500" stroke-width="3.879" stroke="black" fill="none" stroke-linecap="round"></path><path d="M 145.000,112.500 C 139.515,112.864 143.243,111.621 136.000,115.500" stroke-width="4.427" stroke="black" fill="none" stroke-linecap="round"></path><path d="M 136.000,115.500 C 134.287,118.412 133.515,117.364 133.000,121.500" stroke-width="4.144" stroke="black" fill="none" stroke-linecap="round"></path><path d="M 133.000,121.500 C 131.255,124.442 131.787,124.412 131.000,127.500" stroke-width="4.113" stroke="black" fill="none" stroke-linecap="round"></path><path d="M 131.000,127.500 C 129.886,132.091 130.755,130.442 132.000,133.500" stroke-width="4.087" stroke="black" fill="none" stroke-linecap="round"></path><path d="M 132.000,133.500 C 137.742,135.829 135.886,136.091 143.000,135.500" stroke-width="4.188" stroke="black" fill="none" stroke-linecap="round"></path><path d="M 148.000,31.500 C 148.179,26.134 147.000,28.000 146.000,24.500" stroke-width="4.567" stroke="black" fill="none" stroke-linecap="round"></path><path d="M 146.000,24.500 C 142.700,24.240 144.179,23.134 140.000,25.500" stroke-width="4.261" stroke="black" fill="none" stroke-linecap="round"></path><path d="M 140.000,25.500 C 134.775,27.725 135.200,27.740 131.000,31.500" stroke-width="3.649" stroke="black" fill="none" stroke-linecap="round"></path><path d="M 131.000,31.500 C 125.372,37.596 125.275,37.225 121.000,44.500" stroke-width="3.061" stroke="black" fill="none" stroke-linecap="round"></path><path d="M 121.000,44.500 C 115.298,52.547 115.872,52.596 112.000,61.500" stroke-width="2.753" stroke="black" fill="none" stroke-linecap="round"></path><path d="M 112.000,61.500 C 108.730,71.874 108.298,71.547 107.000,82.500" stroke-width="2.492" stroke="black" fill="none" stroke-linecap="round"></path><path d="M 107.000,82.500 C 105.262,93.485 105.230,93.374 105.000,104.500" stroke-width="2.460" stroke="black" fill="none" stroke-linecap="round"></path><path d="M 105.000,104.500 C 104.063,114.814 104.762,114.485 106.000,124.500" stroke-width="2.545" stroke="black" fill="none" stroke-linecap="round"></path><path d="M 106.000,124.500 C 107.385,133.256 107.563,132.314 112.000,139.500" stroke-width="2.825" stroke="black" fill="none" stroke-linecap="round"></path><path d="M 112.000,139.500 C 116.777,145.722 115.885,144.756 123.000,147.500" stroke-width="2.972" stroke="black" fill="none" stroke-linecap="round"></path><path d="M 123.000,147.500 C 132.024,149.611 130.777,149.722 140.000,147.500" stroke-width="2.796" stroke="black" fill="none" stroke-linecap="round"></path><path d="M 140.000,147.500 C 149.730,144.472 149.024,145.111 157.000,138.500" stroke-width="2.684" stroke="black" fill="none" stroke-linecap="round"></path><path d="M 157.000,138.500 C 163.490,132.096 163.730,132.972 168.000,124.500" stroke-width="2.728" stroke="black" fill="none" stroke-linecap="round"></path><path d="M 168.000,124.500 C 173.052,115.835 172.990,116.096 176.000,106.500" stroke-width="2.580" stroke="black" fill="none" stroke-linecap="round"></path><path d="M 176.000,106.500 C 178.938,96.593 179.052,96.835 180.000,86.500" stroke-width="2.564" stroke="black" fill="none" stroke-linecap="round"></path><path d="M 180.000,86.500 C 180.264,77.492 180.938,77.593 180.000,68.500" stroke-width="2.679" stroke="black" fill="none" stroke-linecap="round"></path><path d="M 180.000,68.500 C 180.129,60.403 179.764,60.492 179.000,52.500" stroke-width="2.827" stroke="black" fill="none" stroke-linecap="round"></path><path d="M 179.000,52.500 C 178.355,40.500 178.129,46.403 176.000,40.500" stroke-width="3.164" stroke="black" fill="none" stroke-linecap="round"></path><path d="M 176.000,40.500 C 170.857,46.000 173.355,40.500 169.000,52.500" stroke-width="3.950" stroke="black" fill="none" stroke-linecap="round"></path><path d="M 169.000,52.500 C 168.236,60.492 166.857,60.000 168.000,68.500" stroke-width="3.147" stroke="black" fill="none" stroke-linecap="round"></path><path d="M 168.000,68.500 C 168.231,77.505 167.736,77.492 168.000,86.500" stroke-width="2.845" stroke="black" fill="none" stroke-linecap="round"></path><path d="M 168.000,86.500 C 168.328,97.099 167.731,97.005 167.000,107.500" stroke-width="2.665" stroke="black" fill="none" stroke-linecap="round"></path><path d="M 167.000,107.500 C 162.000,127.875 165.328,120.599 162.000,133.500" stroke-width="2.321" stroke="black" fill="none" stroke-linecap="round"></path><path d="M 162.000,133.500 C 164.288,128.381 162.000,135.875 167.000,123.500" stroke-width="3.552" stroke="black" fill="none" stroke-linecap="round"></path><path d="M 167.000,123.500 C 169.574,119.544 169.288,119.381 172.000,115.500" stroke-width="3.543" stroke="black" fill="none" stroke-linecap="round"></path><path d="M 172.000,115.500 C 173.969,111.982 174.074,112.044 176.000,108.500" stroke-width="3.729" stroke="black" fill="none" stroke-linecap="round"></path><path d="M 176.000,108.500 C 178.806,102.725 177.469,105.982 179.000,103.500" stroke-width="4.039" stroke="black" fill="none" stroke-linecap="round"></path><path d="M 179.000,103.500 C 178.000,108.000 179.306,104.725 177.000,112.500" stroke-width="4.511" stroke="black" fill="none" stroke-linecap="round"></path><path d="M 177.000,112.500 C 175.800,116.965 176.000,117.000 175.000,121.500" stroke-width="3.807" stroke="black" fill="none" stroke-linecap="round"></path><path d="M 175.000,121.500 C 173.720,125.577 174.300,125.465 174.000,129.500" stroke-width="3.813" stroke="black" fill="none" stroke-linecap="round"></path><path d="M 174.000,129.500 C 174.416,134.972 174.220,132.577 176.000,135.500" stroke-width="4.406" stroke="black" fill="none" stroke-linecap="round"></path><path d="M 176.000,135.500 C 178.193,133.668 177.416,135.972 180.000,131.500" stroke-width="4.274" stroke="black" fill="none" stroke-linecap="round"></path><path d="M 180.000,131.500 C 183.232,127.652 183.193,127.668 186.000,123.500" stroke-width="3.734" stroke="black" fill="none" stroke-linecap="round"></path><path d="M 186.000,123.500 C 188.469,120.175 188.232,120.152 190.000,116.500" stroke-width="3.738" stroke="black" fill="none" stroke-linecap="round"></path><path d="M 190.000,116.500 C 191.790,111.303 190.969,114.175 191.000,111.500" stroke-width="4.132" stroke="black" fill="none" stroke-linecap="round"></path><path d="M 191.000,111.500 C 187.687,114.127 189.790,111.803 186.000,117.500" stroke-width="4.619" stroke="black" fill="none" stroke-linecap="round"></path><path d="M 186.000,117.500 C 185.500,120.500 184.687,120.127 185.000,123.500" stroke-width="4.275" stroke="black" fill="none" stroke-linecap="round"></path><path d="M 185.000,123.500 C 183.735,126.583 184.500,126.500 184.000,129.500" stroke-width="4.133" stroke="black" fill="none" stroke-linecap="round"></path><path d="M 184.000,129.500 C 184.236,134.821 184.235,132.083 186.000,134.500" stroke-width="4.614" stroke="black" fill="none" stroke-linecap="round"></path><path d="M 186.000,134.500 C 191.192,131.601 189.736,133.821 195.000,127.500" stroke-width="4.302" stroke="black" fill="none" stroke-linecap="round"></path><path d="M 195.000,127.500 C 197.115,124.061 197.692,124.601 199.000,120.500" stroke-width="3.949" stroke="black" fill="none" stroke-linecap="round"></path><path d="M 199.000,120.500 C 202.116,115.733 201.615,115.561 204.000,110.500" stroke-width="3.480" stroke="black" fill="none" stroke-linecap="round"></path><path d="M 204.000,110.500 C 206.655,103.121 206.616,103.233 208.000,95.500" stroke-width="3.084" stroke="black" fill="none" stroke-linecap="round"></path><path d="M 208.000,95.500 C 209.248,86.020 209.655,86.121 210.000,76.500" stroke-width="2.766" stroke="black" fill="none" stroke-linecap="round"></path><path d="M 210.000,76.500 C 211.000,66.998 210.748,67.020 211.000,57.500" stroke-width="2.625" stroke="black" fill="none" stroke-linecap="round"></path><path d="M 211.000,57.500 C 210.853,49.460 211.000,49.498 210.000,41.500" stroke-width="2.808" stroke="black" fill="none" stroke-linecap="round"></path><path d="M 210.000,41.500 C 210.293,32.121 209.353,35.460 208.000,29.500" stroke-width="3.122" stroke="black" fill="none" stroke-linecap="round"></path><path d="M 208.000,29.500 C 203.988,30.701 206.793,28.121 203.000,33.500" stroke-width="4.087" stroke="black" fill="none" stroke-linecap="round"></path><path d="M 203.000,33.500 C 202.217,39.989 200.988,39.201 202.000,46.500" stroke-width="3.410" stroke="black" fill="none" stroke-linecap="round"></path><path d="M 202.000,46.500 C 202.000,55.000 201.717,54.989 202.000,63.500" stroke-width="2.901" stroke="black" fill="none" stroke-linecap="round"></path><path d="M 202.000,63.500 C 202.223,74.004 202.000,74.000 202.000,84.500" stroke-width="2.621" stroke="black" fill="none" stroke-linecap="round"></path><path d="M 202.000,84.500 C 201.634,97.507 201.723,97.504 201.000,110.500" stroke-width="2.329" stroke="black" fill="none" stroke-linecap="round"></path><path d="M 201.000,110.500 C 198.402,122.624 200.634,118.007 200.000,125.500" stroke-width="2.701" stroke="black" fill="none" stroke-linecap="round"></path><path d="M 200.000,125.500 C 203.731,123.007 200.902,127.124 206.000,119.500" stroke-width="3.897" stroke="black" fill="none" stroke-linecap="round"></path><path d="M 206.000,119.500 C 208.758,114.105 209.231,114.507 211.000,108.500" stroke-width="3.450" stroke="black" fill="none" stroke-linecap="round"></path><path d="M 211.000,108.500 C 214.091,101.660 213.758,101.605 216.000,94.500" stroke-width="3.123" stroke="black" fill="none" stroke-linecap="round"></path><path d="M 216.000,94.500 C 217.850,86.551 218.091,86.660 219.000,78.500" stroke-width="2.881" stroke="black" fill="none" stroke-linecap="round"></path><path d="M 219.000,78.500 C 220.471,69.025 220.350,69.051 221.000,59.500" stroke-width="2.714" stroke="black" fill="none" stroke-linecap="round"></path><path d="M 221.000,59.500 C 221.293,50.988 221.471,51.025 221.000,42.500" stroke-width="2.782" stroke="black" fill="none" stroke-linecap="round"></path><path d="M 221.000,42.500 C 220.630,36.485 220.793,36.488 220.000,30.500" stroke-width="3.068" stroke="black" fill="none" stroke-linecap="round"></path><path d="M 220.000,30.500 C 219.808,22.894 219.630,26.985 219.000,23.500" stroke-width="3.650" stroke="black" fill="none" stroke-linecap="round"></path><path d="M 219.000,23.500 C 216.914,28.381 217.808,24.394 216.000,33.500" stroke-width="4.065" stroke="black" fill="none" stroke-linecap="round"></path><path d="M 216.000,33.500 C 214.475,42.471 214.414,42.381 214.000,51.500" stroke-width="3.023" stroke="black" fill="none" stroke-linecap="round"></path><path d="M 214.000,51.500 C 213.773,61.505 213.475,61.471 214.000,71.500" stroke-width="2.702" stroke="black" fill="none" stroke-linecap="round"></path><path d="M 214.000,71.500 C 214.455,83.502 214.273,83.505 215.000,95.500" stroke-width="2.368" stroke="black" fill="none" stroke-linecap="round"></path><path d="M 215.000,95.500 C 215.655,105.496 215.455,105.502 216.000,115.500" stroke-width="2.514" stroke="black" fill="none" stroke-linecap="round"></path><path d="M 216.000,115.500 C 214.154,123.181 216.155,119.996 216.000,124.500" stroke-width="3.230" stroke="black" fill="none" stroke-linecap="round"></path><path d="M 216.000,124.500 C 219.968,123.066 217.654,125.681 223.000,120.500" stroke-width="4.212" stroke="black" fill="none" stroke-linecap="round"></path><path d="M 223.000,120.500 C 226.351,117.253 226.468,117.566 229.000,113.500" stroke-width="3.740" stroke="black" fill="none" stroke-linecap="round"></path><path d="M 229.000,113.500 C 232.494,108.741 232.351,108.753 235.000,103.500" stroke-width="3.448" stroke="black" fill="none" stroke-linecap="round"></path><path d="M 235.000,103.500 C 238.323,97.210 237.994,97.241 240.000,90.500" stroke-width="3.191" stroke="black" fill="none" stroke-linecap="round"></path><path d="M 240.000,90.500 C 241.700,83.012 241.823,83.210 242.000,75.500" stroke-width="2.975" stroke="black" fill="none" stroke-linecap="round"></path><path d="M 242.000,75.500 C 243.015,66.256 242.200,70.512 241.000,65.500" stroke-width="3.346" stroke="black" fill="none" stroke-linecap="round"></path><path d="M 241.000,65.500 C 235.932,68.206 239.015,64.756 234.000,72.500" stroke-width="3.977" stroke="black" fill="none" stroke-linecap="round"></path><path d="M 234.000,72.500 C 232.700,78.967 231.432,78.206 232.000,85.500" stroke-width="3.377" stroke="black" fill="none" stroke-linecap="round"></path><path d="M 232.000,85.500 C 231.268,92.992 231.200,92.967 231.000,100.500" stroke-width="3.093" stroke="black" fill="none" stroke-linecap="round"></path><path d="M 231.000,100.500 C 230.691,107.019 230.768,106.992 231.000,113.500" stroke-width="3.100" stroke="black" fill="none" stroke-linecap="round"></path><path d="M 231.000,113.500 C 230.201,118.502 231.191,117.519 232.000,121.500" stroke-width="3.569" stroke="black" fill="none" stroke-linecap="round"></path><path d="M 232.000,121.500 C 234.649,123.928 233.201,123.502 237.000,123.500" stroke-width="4.370" stroke="black" fill="none" stroke-linecap="round"></path><path d="M 237.000,123.500 C 240.223,121.772 240.149,122.928 243.000,119.500" stroke-width="4.067" stroke="black" fill="none" stroke-linecap="round"></path><path d="M 243.000,119.500 C 245.808,117.240 245.723,117.272 248.000,114.500" stroke-width="4.000" stroke="black" fill="none" stroke-linecap="round"></path><path d="M 248.000,114.500 C 251.197,112.065 249.808,112.240 251.000,109.500" stroke-width="4.085" stroke="black" fill="none" stroke-linecap="round"></path><path d="M 251.000,109.500 C 249.866,103.729 250.697,105.565 247.000,101.500" stroke-width="4.336" stroke="black" fill="none" stroke-linecap="round"></path><path d="M 247.000,101.500 C 243.864,101.050 245.366,100.229 242.000,102.500" stroke-width="4.287" stroke="black" fill="none" stroke-linecap="round"></path><path d="M 242.000,102.500 C 239.243,105.186 239.364,104.550 238.000,108.500" stroke-width="4.045" stroke="black" fill="none" stroke-linecap="round"></path><path d="M 238.000,108.500 C 235.741,113.578 236.243,113.186 236.000,118.500" stroke-width="3.659" stroke="black" fill="none" stroke-linecap="round"></path><path d="M 236.000,118.500 C 236.708,123.489 236.241,123.078 239.000,127.500" stroke-width="3.569" stroke="black" fill="none" stroke-linecap="round"></path><path d="M 239.000,127.500 C 241.025,131.148 240.708,130.489 244.000,132.500" stroke-width="3.842" stroke="black" fill="none" stroke-linecap="round"></path><path d="M 244.000,132.500 C 247.635,133.880 246.525,133.648 250.000,132.500" stroke-width="4.058" stroke="black" fill="none" stroke-linecap="round"></path><path d="M 250.000,132.500 C 253.462,129.307 253.635,130.380 256.000,125.500" stroke-width="3.703" stroke="black" fill="none" stroke-linecap="round"></path><path d="M 256.000,125.500 C 258.604,121.689 258.462,121.807 260.000,117.500" stroke-width="3.691" stroke="black" fill="none" stroke-linecap="round"></path><path d="M 260.000,117.500 C 261.548,113.788 261.104,114.189 261.000,110.500" stroke-width="3.884" stroke="black" fill="none" stroke-linecap="round"></path><path d="M 261.000,110.500 C 259.300,105.500 260.548,107.788 258.000,105.500" stroke-width="4.471" stroke="black" fill="none" stroke-linecap="round"></path><path d="M 258.000,105.500 C 256.601,107.897 256.800,105.500 256.000,110.500" stroke-width="4.330" stroke="black" fill="none" stroke-linecap="round"></path><path d="M 256.000,110.500 C 254.541,114.595 255.101,114.397 255.000,118.500" stroke-width="3.900" stroke="black" fill="none" stroke-linecap="round"></path><path d="M 255.000,118.500 C 255.625,123.541 255.541,123.095 258.000,127.500" stroke-width="3.692" stroke="black" fill="none" stroke-linecap="round"></path><path d="M 258.000,127.500 C 260.397,131.956 260.125,131.041 264.000,133.500" stroke-width="3.734" stroke="black" fill="none" stroke-linecap="round"></path><path d="M 264.000,133.500 C 268.444,134.833 267.397,134.956 272.000,133.500" stroke-width="3.745" stroke="black" fill="none" stroke-linecap="round"></path><path d="M 272.000,133.500 C 276.769,131.193 276.444,131.833 280.000,127.500" stroke-width="3.600" stroke="black" fill="none" stroke-linecap="round"></path><path d="M 280.000,127.500 C 284.202,122.893 283.769,123.193 286.000,117.500" stroke-width="3.411" stroke="black" fill="none" stroke-linecap="round"></path><path d="M 286.000,117.500 C 288.674,111.284 287.702,112.393 287.000,106.500" stroke-width="3.352" stroke="black" fill="none" stroke-linecap="round"></path><path d="M 287.000,106.500 C 284.153,100.165 285.174,101.284 279.000,97.500" stroke-width="3.310" stroke="black" fill="none" stroke-linecap="round"></path><path d="M 279.000,97.500 C 268.741,93.091 269.653,92.665 258.000,91.500" stroke-width="2.667" stroke="black" fill="none" stroke-linecap="round"></path><path d="M 258.000,91.500 C 241.439,88.678 241.741,89.091 225.000,89.500" stroke-width="2.024" stroke="black" fill="none" stroke-linecap="round"></path><path d="M 225.000,89.500 C 201.079,90.537 201.439,90.678 178.000,95.500" stroke-width="1.614" stroke="black" fill="none" stroke-linecap="round"></path><path d="M 178.000,95.500 C 154.894,102.174 154.579,100.537 132.000,109.500" stroke-width="1.510" stroke="black" fill="none" stroke-linecap="round"></path><path d="M 132.000,109.500 C 117.509,114.526 117.394,114.174 103.000,119.500" stroke-width="1.780" stroke="black" fill="none" stroke-linecap="round"></path></svg>